# xmcd
#
# Track frame offsets: 
#        150
#        11832
#        25061
#        32804
#        45407
#        60263
#        72253
#        82967
#        99727
#        118326
#        132002
#        147999
#        159341
#        171736
#
# Disc length: 2481 seconds
#
# Revision: 0
# Processed by: cddbd v1.5.2PL0 Copyright (c) Steve Scherf et al.
# Submitted via: ExactAudioCopy v0.95b4
#
DISCID=ba09af0e
DTITLE=Various Artist - Blues and Soul
DYEAR=2004
DGENRE=Blues
TTITLE0=Soul man - Sam and Dave
TTITLE1=Close to you - Muddy Waters
TTITLE2=Knock on wood - Eddie Floyd
TTITLE3=God bless the child (live) - Billie Holiday
TTITLE4=Rock you baby - George Mc Crae
TTITLE5=Goin' home - Buddy Guy
TTITLE6=Pap's got a brand new gab (live) - James Brown
TTITLE7=Blowin' in the wind - Etta James
TTITLE8=Lady love (live) - Lou Rawls
TTITLE9=I guess I'm fool - Memphis Slim
TTITLE10=Drift away - Dobie Gray
TTITLE11=Only you - The Platters
TTITLE12=Little baby - Howkin' Wolf
TTITLE13=Love is here and now you're gonne - Rae Earth
EXTD=
EXTT0=
EXTT1=
EXTT2=
EXTT3=
EXTT4=
EXTT5=
EXTT6=
EXTT7=
EXTT8=
EXTT9=
EXTT10=
EXTT11=
EXTT12=
EXTT13=
PLAYORDER=
